<svg width="96" height="96" viewBox="0 0 96 96" fill="none" xmlns="http://www.w3.org/2000/svg">
  <defs>
    <linearGradient id="adminGradient" x1="0%" y1="0%" x2="100%" y2="100%">
      <stop offset="0%" style="stop-color:#e63946"/>
      <stop offset="100%" style="stop-color:#ff6b7a"/>
    </linearGradient>
  </defs>

  <!-- Background -->
  <rect width="96" height="96" rx="20" fill="#fafaf9"/>

  <!-- Gear icon -->
  <g transform="translate(48, 48)">
    <!-- Outer gear teeth -->
    <path d="M0 -28 L4 -24 L4 -20 L8 -20 L8 -24 L12 -28 L12 -20 L16 -16 L20 -16 L20 -12 L24 -8 L28 -12 L24 -4 L24 0 L28 0 L28 4 L24 4 L24 8 L28 12 L24 8 L20 12 L20 16 L16 16 L12 20 L12 28 L8 24 L8 20 L4 20 L4 24 L0 28 L-4 24 L-4 20 L-8 20 L-8 24 L-12 28 L-12 20 L-16 16 L-20 16 L-20 12 L-24 8 L-28 12 L-24 4 L-24 0 L-28 0 L-28 -4 L-24 -4 L-24 -8 L-28 -12 L-24 -8 L-20 -12 L-20 -16 L-16 -16 L-12 -20 L-12 -28 L-8 -24 L-8 -20 L-4 -20 L-4 -24 Z"
          fill="url(#adminGradient)" opacity="0.2"/>

    <!-- Simplified gear -->
    <circle cx="0" cy="0" r="20" stroke="url(#adminGradient)" stroke-width="4" fill="none"/>
    <circle cx="0" cy="0" r="8" fill="url(#adminGradient)"/>

    <!-- Gear notches -->
    <g stroke="url(#adminGradient)" stroke-width="6" stroke-linecap="round">
      <line x1="0" y1="-24" x2="0" y2="-16"/>
      <line x1="0" y1="16" x2="0" y2="24"/>
      <line x1="-24" y1="0" x2="-16" y2="0"/>
      <line x1="16" y1="0" x2="24" y2="0"/>
      <line x1="-17" y1="-17" x2="-11" y2="-11"/>
      <line x1="11" y1="11" x2="17" y2="17"/>
      <line x1="-17" y1="17" x2="-11" y2="11"/>
      <line x1="11" y1="-11" x2="17" y2="-17"/>
    </g>
  </g>
</svg>
